<svg xmlns="http://www.w3.org/2000/svg" viewBox="0 0 24 24" width="1024" height="1024" role="img" aria-label="Dumpbook">
  <rect width="24" height="24" rx="5" fill="#111827"/>
  <g transform="translate(12,12) scale(0.66) translate(-12,-12)">
    <g fill="none" stroke="#ffffff" stroke-width="2" stroke-linecap="round" stroke-linejoin="round">
      <path d="M4 19.5A2.5 2.5 0 0 1 6.5 17H20"/>
      <path d="M6.5 2H20v20H6.5A2.5 2.5 0 0 1 4 19.5v-15A2.5 2.5 0 0 1 6.5 2z"/>
    </g>

    <path d="M6.856 5.208L6.856 8L7.756 8C8.504 8 8.864 7.500 8.864 6.604C8.864 5.708 8.504 5.208 7.756 5.208M7.716 7.528L7.448 7.528L7.448 5.680L7.716 5.680C8.072 5.680 8.232 5.916 8.232 6.348L8.232 6.856C8.232 7.292 8.072 7.528 7.716 7.528M10.548 7.624L10.548 8L11.140 8L11.140 5.936L10.548 5.936L10.548 7.292C10.548 7.492 10.368 7.592 10.184 7.592C9.952 7.592 9.836 7.452 9.836 7.192L9.836 5.936L9.244 5.936L9.244 7.272C9.244 7.772 9.520 8.048 9.916 8.048C10.248 8.048 10.432 7.856 10.524 7.624M11.676 8L12.268 8L12.268 6.640C12.268 6.432 12.444 6.332 12.616 6.332C12.808 6.332 12.904 6.460 12.904 6.732L12.904 8L13.496 8L13.496 6.640C13.496 6.432 13.668 6.332 13.844 6.332C14.040 6.332 14.132 6.460 14.132 6.732L14.132 8L14.724 8L14.724 6.684C14.724 6.156 14.500 5.852 14.096 5.852C13.776 5.852 13.532 6.040 13.456 6.276L13.444 6.276C13.352 6 13.144 5.852 12.856 5.852C12.544 5.852 12.368 6.032 12.292 6.256L12.268 6.256L12.268 5.900L11.676 5.900M15.236 5.936L15.236 8.800L15.828 8.800L15.828 7.624L15.856 7.624C15.960 7.872 16.136 8.048 16.468 8.048C16.924 8.048 17.244 7.716 17.244 6.968C17.244 6.220 16.924 5.888 16.468 5.888C16.136 5.888 15.960 6.064 15.856 6.312L15.828 6.312L15.828 5.936M16.212 7.588C16.004 7.588 15.828 7.488 15.828 7.272L15.828 6.664C15.828 6.448 16.004 6.348 16.212 6.348C16.476 6.348 16.628 6.520 16.628 6.808L16.628 7.128C16.628 7.416 16.476 7.588 16.212 7.588" fill="#ffffff"/>

    <path d="M7.908 11.040L7.412 14L7.724 14L7.784 13.640L7.796 13.640C7.884 13.908 8.096 14.048 8.400 14.048C9.128 14.048 9.376 13.240 9.376 12.688C9.376 12.160 9.148 11.888 8.732 11.888C8.368 11.888 8.160 12.100 8 12.424L7.988 12.424L8.220 11.040M8.304 13.772C7.996 13.772 7.788 13.608 7.836 13.320L7.912 12.864C7.944 12.672 8.036 12.508 8.140 12.392C8.284 12.232 8.452 12.164 8.624 12.164C8.912 12.164 9.060 12.348 9.060 12.656C9.060 12.708 9.056 12.764 9.044 12.836L8.996 13.124C8.932 13.508 8.700 13.772 8.304 13.772M10.660 14.048C11.268 14.048 11.744 13.548 11.744 12.760C11.744 12.244 11.472 11.888 10.936 11.888C10.332 11.888 9.856 12.388 9.856 13.176C9.856 13.692 10.132 14.048 10.660 14.048M10.676 13.776C10.368 13.776 10.172 13.616 10.172 13.268C10.172 13.220 10.176 13.160 10.192 13.064L10.232 12.824C10.300 12.416 10.536 12.160 10.924 12.160C11.232 12.160 11.428 12.320 11.428 12.668C11.428 12.716 11.424 12.776 11.408 12.872L11.368 13.112C11.300 13.520 11.064 13.776 10.676 13.776M13.060 14.048C13.668 14.048 14.144 13.548 14.144 12.760C14.144 12.244 13.872 11.888 13.336 11.888C12.732 11.888 12.256 12.388 12.256 13.176C12.256 13.692 12.532 14.048 13.060 14.048M13.076 13.776C12.768 13.776 12.572 13.616 12.572 13.268C12.572 13.220 12.576 13.160 12.592 13.064L12.632 12.824C12.700 12.416 12.936 12.160 13.324 12.160C13.632 12.160 13.828 12.320 13.828 12.668C13.828 12.716 13.824 12.776 13.808 12.872L13.768 13.112C13.700 13.520 13.464 13.776 13.076 13.776M15.132 11.040L14.636 14L14.948 14L15.140 12.860C15.168 12.688 15.252 12.536 15.368 12.392C15.480 12.256 15.616 12.156 15.820 12.156C16.036 12.156 16.156 12.268 16.156 12.456C16.156 12.700 15.952 12.928 15.284 13.092L15.608 13.796C15.692 13.980 15.780 14.048 15.916 14.048C16.068 14.048 16.188 13.960 16.396 13.752L16.680 13.468L16.508 13.288L15.976 13.776L15.924 13.768L15.640 13.148C16.340 12.976 16.476 12.644 16.476 12.396C16.476 12.088 16.264 11.888 15.936 11.888C15.592 11.888 15.376 12.108 15.228 12.424L15.212 12.424" fill="#ffffff"/>
  </g>
</svg>
